<mxfile host="app.diagrams.net" agent="Mozilla/5.0 (Windows NT 10.0; Win64; x64) AppleWebKit/537.36 (KHTML, like Gecko) Chrome/131.0.0.0 Safari/537.36 Edg/131.0.0.0" version="26.0.3">
  <diagram name="第 1 页" id="qIUuBscZotgrsNOUc7ui">
    <mxGraphModel dx="1426" dy="747" grid="1" gridSize="10" guides="1" tooltips="1" connect="1" arrows="1" fold="1" page="1" pageScale="1" pageWidth="827" pageHeight="1169" math="0" shadow="0">
      <root>
        <mxCell id="0" />
        <mxCell id="1" parent="0" />
        <mxCell id="VPxKyhWsHq1meh5dTqnt-3" style="edgeStyle=orthogonalEdgeStyle;rounded=0;orthogonalLoop=1;jettySize=auto;html=1;" parent="1" source="VPxKyhWsHq1meh5dTqnt-2" target="VPxKyhWsHq1meh5dTqnt-4" edge="1">
          <mxGeometry relative="1" as="geometry">
            <mxPoint x="270" y="220" as="targetPoint" />
          </mxGeometry>
        </mxCell>
        <mxCell id="VPxKyhWsHq1meh5dTqnt-7" value="datax抽取" style="edgeLabel;html=1;align=center;verticalAlign=middle;resizable=0;points=[];" parent="VPxKyhWsHq1meh5dTqnt-3" vertex="1" connectable="0">
          <mxGeometry x="-0.1429" y="1" relative="1" as="geometry">
            <mxPoint as="offset" />
          </mxGeometry>
        </mxCell>
        <mxCell id="VPxKyhWsHq1meh5dTqnt-2" value="tidb dwt库" style="rounded=1;whiteSpace=wrap;html=1;" parent="1" vertex="1">
          <mxGeometry x="50" y="190" width="120" height="60" as="geometry" />
        </mxCell>
        <mxCell id="VPxKyhWsHq1meh5dTqnt-5" style="edgeStyle=orthogonalEdgeStyle;rounded=0;orthogonalLoop=1;jettySize=auto;html=1;" parent="1" source="VPxKyhWsHq1meh5dTqnt-4" target="VPxKyhWsHq1meh5dTqnt-6" edge="1">
          <mxGeometry relative="1" as="geometry">
            <mxPoint x="520" y="220" as="targetPoint" />
          </mxGeometry>
        </mxCell>
        <mxCell id="VPxKyhWsHq1meh5dTqnt-8" value="datax抽取" style="edgeLabel;html=1;align=center;verticalAlign=middle;resizable=0;points=[];" parent="VPxKyhWsHq1meh5dTqnt-5" vertex="1" connectable="0">
          <mxGeometry x="0.0143" relative="1" as="geometry">
            <mxPoint as="offset" />
          </mxGeometry>
        </mxCell>
        <mxCell id="VPxKyhWsHq1meh5dTqnt-4" value="polar api_data（业务库）&lt;div&gt;api_system（应用库）&lt;/div&gt;" style="rounded=1;whiteSpace=wrap;html=1;" parent="1" vertex="1">
          <mxGeometry x="310" y="190" width="140" height="60" as="geometry" />
        </mxCell>
        <mxCell id="VPxKyhWsHq1meh5dTqnt-6" value="selectdb&amp;nbsp; api_data库（业务库）" style="rounded=1;whiteSpace=wrap;html=1;" parent="1" vertex="1">
          <mxGeometry x="570" y="190" width="130" height="60" as="geometry" />
        </mxCell>
        <mxCell id="VPxKyhWsHq1meh5dTqnt-12" style="edgeStyle=orthogonalEdgeStyle;rounded=0;orthogonalLoop=1;jettySize=auto;html=1;entryX=0.5;entryY=1;entryDx=0;entryDy=0;" parent="1" source="VPxKyhWsHq1meh5dTqnt-11" target="VPxKyhWsHq1meh5dTqnt-6" edge="1">
          <mxGeometry relative="1" as="geometry" />
        </mxCell>
        <mxCell id="VPxKyhWsHq1meh5dTqnt-13" value="业务" style="edgeLabel;html=1;align=center;verticalAlign=middle;resizable=0;points=[];" parent="VPxKyhWsHq1meh5dTqnt-12" vertex="1" connectable="0">
          <mxGeometry y="-1" relative="1" as="geometry">
            <mxPoint as="offset" />
          </mxGeometry>
        </mxCell>
        <mxCell id="VPxKyhWsHq1meh5dTqnt-14" style="edgeStyle=orthogonalEdgeStyle;rounded=0;orthogonalLoop=1;jettySize=auto;html=1;entryX=0.5;entryY=1;entryDx=0;entryDy=0;" parent="1" target="VPxKyhWsHq1meh5dTqnt-4" edge="1">
          <mxGeometry relative="1" as="geometry">
            <mxPoint x="635" y="330" as="sourcePoint" />
          </mxGeometry>
        </mxCell>
        <mxCell id="VPxKyhWsHq1meh5dTqnt-15" value="应用" style="edgeLabel;html=1;align=center;verticalAlign=middle;resizable=0;points=[];" parent="VPxKyhWsHq1meh5dTqnt-14" vertex="1" connectable="0">
          <mxGeometry x="0.7616" relative="1" as="geometry">
            <mxPoint as="offset" />
          </mxGeometry>
        </mxCell>
        <mxCell id="VPxKyhWsHq1meh5dTqnt-11" value="springboot 应用项目查询" style="rounded=1;whiteSpace=wrap;html=1;" parent="1" vertex="1">
          <mxGeometry x="575" y="360" width="120" height="60" as="geometry" />
        </mxCell>
      </root>
    </mxGraphModel>
  </diagram>
</mxfile>
